<svg width="118" height="198" viewBox="0 0 118 198" fill="none" xmlns="http://www.w3.org/2000/svg">
<path d="M27.979 153.189C31.7785 150.693 31.8314 147.138 33.3577 144.364C34.3868 142.457 35.5952 140.461 37.1884 139.133C40.6094 136.292 46.1453 138.697 46.422 143.017C46.5224 145.187 46.292 147.488 45.676 149.568C41.7729 162.632 37.7939 175.717 33.6428 188.767C32.9093 191.163 31.4595 193.47 29.8515 195.493C27.436 198.59 22.5929 198.439 20.1993 195.466C19.5253 194.632 18.9341 193.653 18.3911 192.701C13.2021 183.324 7.90967 174.017 2.89991 164.551C1.73165 162.344 0.908365 159.76 0.629283 157.231C0.0846304 152.373 3.73949 149.794 8.44268 151.53C9.75791 152.028 10.9761 152.918 13.0483 154.106C13.4303 151.764 13.8183 150.194 13.8894 148.506C14.3998 137.787 14.8826 127.115 15.3172 116.417C16.348 92.6149 24.4997 70.9102 35.6539 50.2222C39.1555 43.7783 43.635 37.6389 48.7814 32.458C56.8323 24.3323 65.5437 16.8413 74.4338 9.70882C84.4687 1.696 96.3423 -0.58919 108.976 0.826276C111.077 1.07022 113.425 1.77609 115.07 3.03906C116.261 3.97762 117.25 6.27315 116.993 7.72649C116.736 9.17982 114.942 10.9687 113.454 11.3318C111.076 12.0176 108.348 11.8624 105.785 11.8658C95.3541 11.969 86.2555 15.3327 78.4474 22.253C70.4529 29.3867 61.8256 35.8375 55.2897 44.4475C40.9204 63.4846 32.6517 85.0582 29.6991 108.527C28.0768 121.298 28.1076 134.312 27.4221 147.236C27.3439 149.048 27.7411 150.812 27.979 153.189Z" fill="black"/>
</svg>
