<svg width="182" height="143" viewBox="0 0 182 143" fill="none" xmlns="http://www.w3.org/2000/svg">
<path d="M44.0909 28.485C45.8472 32.6779 49.3321 33.3823 51.7793 35.3917C53.4651 36.7532 55.2058 38.3074 56.2185 40.1171C58.3834 44.0013 55.0035 49.0019 50.706 48.4812C48.5541 48.1818 46.3347 47.5331 44.4032 46.546C32.277 40.3121 20.1446 33.9998 8.0778 27.5247C5.85651 26.3639 3.85563 24.5156 2.16166 22.5637C-0.439593 19.621 0.597644 14.8878 3.95893 13.0803C4.90297 12.5708 5.97389 12.1693 7.00884 11.8101C17.1784 8.42965 27.2993 4.9349 37.5238 1.74704C39.9069 1.00341 42.5987 0.668345 45.1358 0.857998C50.0111 1.21392 51.8754 5.27988 49.3063 9.58478C48.5756 10.7863 47.4768 11.8205 45.929 13.6395C48.1611 14.4448 49.6335 15.1143 51.2796 15.4939C61.7234 17.9625 72.1248 20.395 82.5622 22.7853C105.771 28.1658 125.611 40.1616 143.901 54.9223C149.593 59.5468 154.807 65.0767 158.955 71.0865C165.466 80.4916 171.231 90.4296 176.611 100.477C182.647 111.812 182.715 123.904 179.005 136.063C178.38 138.083 177.255 140.262 175.712 141.648C174.571 142.646 172.133 143.197 170.751 142.678C169.37 142.158 167.94 140.067 167.857 138.537C167.619 136.074 168.272 133.421 168.739 130.901C170.551 120.628 168.914 111.067 163.544 102.121C157.998 92.9536 153.24 83.2891 145.975 75.2844C129.898 57.666 110.208 45.5792 87.6793 38.3707C75.4229 34.4327 62.6238 32.0751 50.0453 29.0299C48.2786 28.6206 46.4714 28.6873 44.0909 28.485Z" fill="black"/>
</svg>
