<svg width="146" height="170" viewBox="0 0 146 170" fill="none" xmlns="http://www.w3.org/2000/svg">
<path d="M126.376 147.266C129.099 145.854 131.886 144.336 134.793 143.005C136.44 142.282 138.211 141.545 139.987 141.333C142.427 141.025 144.594 142.145 145.119 144.513C145.458 146.075 144.956 148.177 144.098 149.516C143.13 150.992 141.475 152.116 139.841 152.963C130.049 158.168 120.318 163.467 110.317 168.344C104.763 171.104 99.5825 168.878 98.1856 162.981C96.9474 157.641 96.4842 152.07 96.251 146.55C95.8975 138.469 96.038 130.336 96.055 122.216C96.0366 121.569 96.6657 120.903 97.0347 120.14C102.4 119.149 105.359 122.333 107 126.756C108.097 129.812 108.386 133.254 108.708 136.542C109 139.783 108.875 143.094 108.924 146.161C111.508 147.212 111.913 145.371 112.49 144.211C119.209 130.488 120.154 115.775 119.33 100.875C119.2 97.9916 118.116 95.0587 116.935 92.3858C103.487 62.4827 83.0014 38.7927 54.4881 22.3448C42.2043 15.2989 28.6622 13.6062 14.8008 14.0955C12.3344 14.156 9.93463 15.5584 7.45664 16.2197C5.05538 16.8978 3.08529 15.9818 1.70518 14.0293C0.0688373 11.7791 -0.180459 8.70817 1.51963 6.83016C2.99877 5.22525 4.75489 3.64103 6.72577 2.90841C9.41166 1.85053 12.4305 1.10718 15.3443 1.02437C32.3065 0.332667 48.6027 3.03345 63.2809 12.1746C83.3039 24.6231 100.62 40.055 113.285 60.1744C119.222 69.564 125.222 78.8469 129.181 89.3695C131.554 95.7632 132.539 102.254 132.072 108.947C131.312 120.442 130.062 131.79 125.94 142.666C125.597 143.676 125.467 144.814 125.355 145.875C125.334 146.152 125.744 146.483 126.376 147.266Z" fill="black"/>
</svg>
