<svg width="119" height="195" viewBox="0 0 119 195" fill="none" xmlns="http://www.w3.org/2000/svg">
<path d="M88.2249 16.7506C85.6704 15.0522 82.9918 13.3497 80.419 11.4518C78.9881 10.3615 77.4859 9.16944 76.4395 7.7188C74.9879 5.73308 74.918 3.29516 76.7348 1.689C77.9371 0.6345 80.0188 0.0559444 81.6061 0.157213C83.3664 0.288951 85.1514 1.19194 86.684 2.21101C95.9817 8.25417 105.332 14.1996 114.445 20.5847C119.55 24.1057 120.113 29.7161 115.631 33.7956C111.56 37.4659 106.911 40.5707 102.195 43.4497C95.2978 47.6744 88.1154 51.4922 81.0043 55.4117C80.4468 55.7416 79.5595 55.5139 78.7129 55.561C75.246 51.3475 76.598 47.2161 79.6718 43.6376C81.8139 41.197 84.6847 39.2771 87.405 37.4021C90.0988 35.5758 93.0552 34.0812 95.7144 32.5521C95.3819 29.7826 93.575 30.3204 92.2807 30.3777C77.0205 31.1496 63.6932 37.452 51.0582 45.3924C48.5984 46.9031 46.558 49.2724 44.7923 51.601C25.1503 77.8544 14.3534 107.253 13.7814 140.166C13.57 154.325 18.6512 166.991 25.7956 178.88C27.0437 181.008 29.4333 182.428 31.2124 184.275C32.9692 186.047 33.1224 188.214 32.0832 190.367C30.9077 192.889 28.3422 194.595 25.8756 194.018C23.7549 193.502 21.5182 192.733 19.9223 191.364C17.6955 189.527 15.5825 187.247 14.0982 184.738C5.27407 170.235 -0.259702 154.671 0.624335 137.402C1.81172 113.855 6.92079 91.2299 18.3837 70.4023C23.7206 60.6591 28.9333 50.9119 36.2201 42.3504C40.663 37.1761 45.8633 33.1697 51.945 30.3351C62.3688 25.4296 72.9006 21.0247 84.4121 19.3607C85.4621 19.1711 86.5202 18.7332 87.503 18.3178C87.7553 18.2017 87.8467 17.6827 88.2249 16.7506Z" fill="black"/>
</svg>
